<svg width="500" height="500" viewBox="0 0 500 500" fill="none" xmlns="http://www.w3.org/2000/svg">
<path d="M362.096 153C360.677 152.996 359.242 153.065 358.342 153.229C356.595 153.558 19.5855 244.037 18.3744 244.504C8.82429 248.258 2.41425 258.668 0.476558 273.616C0.0786341 276.644 -0.108419 282.171 0.0645868 285.701C0.341402 291.427 1.08926 296.305 2.49064 301.997C8.19996 325.18 22.625 343.395 38.0575 346.856C39.8568 347.254 44.0856 347.367 45.885 347.039C47.4074 346.779 381.363 257.232 384.754 256.176C391.208 254.169 396.067 249.664 399.631 242.398C401.621 238.367 402.822 234.466 403.842 228.757C404.656 224.259 405.355 222.326 407.275 219.419C409.611 215.872 413.657 212.849 417.758 211.637C418.433 211.447 435.101 206.981 454.789 201.704C474.478 196.41 491.01 191.876 491.546 191.634C499.505 187.983 502.402 176.359 497.818 166.549C495.292 161.169 490.715 157.197 485.87 156.159C484.227 155.813 481.718 155.852 480.057 156.25C479.296 156.44 462.9 160.827 443.575 166C424.267 171.19 408.023 175.538 407.504 175.659C406.881 175.814 405.512 175.887 403.522 175.887C400.2 175.87 398.925 175.65 396.244 174.56C392.887 173.176 390.772 171.49 387.363 167.511C382.26 161.559 377.654 157.803 372.533 155.38C370.335 154.36 367.971 153.592 365.895 153.229C364.944 153.065 363.515 153.005 362.096 153Z" fill="black"/>
</svg>
