<svg width="500" height="500" viewBox="0 0 500 500" fill="none" xmlns="http://www.w3.org/2000/svg">
<g clip-path="url(#clip0_155_426)">
<path d="M117.471 320.598C104.388 320.598 96.3731 316.06 92.6014 308.658H-1.66675V351.75H233.238V308.658H147.786C141.975 316.107 130.648 320.598 117.424 320.598" fill="black"/>
<path d="M139.158 304.568C142.989 304.568 148.481 302.718 152.913 293.843C153.927 291.827 154.127 289.258 154.351 286.535C154.469 285.121 154.658 282.846 154.988 281.974C155.412 281.679 156.39 281.255 157.086 280.948C159.69 279.805 163.262 278.249 165.136 274.501C166.185 272.403 166.491 270.329 166.491 268.349C166.491 266.863 166.314 265.437 166.149 264.082C165.973 262.656 165.819 261.288 165.819 259.874C165.819 259.391 165.821 258.908 165.878 258.413C166.09 255.937 170.44 250.575 174.353 247.121L168.377 240.32C166.562 241.911 157.498 250.221 156.85 257.635C156.602 260.546 156.897 263.009 157.156 265.178C157.463 267.759 157.616 269.28 157.027 270.458C156.614 271.272 154.94 272.014 153.444 272.662C151.133 273.676 148.529 274.808 147.079 277.459C145.806 279.805 145.558 282.858 145.311 285.816C145.205 287.172 145.04 289.234 144.78 289.847C144.003 291.391 143.189 292.64 142.352 293.572C141.787 295.127 140.808 297.355 139.135 299.76V304.568" fill="black"/>
<path d="M127.372 298.911L132.546 306.337C135.505 304.274 137.626 301.94 139.159 299.748C140.832 297.355 141.799 295.128 142.376 293.56C142.588 292.971 142.753 292.476 142.871 292.11C143.685 289.576 143.083 287.172 142.553 285.062C141.999 282.846 141.681 281.42 142.294 280.076C143.001 278.497 144.203 277.554 145.724 276.364C147.456 275.008 149.613 273.311 150.957 270.47C152.63 266.958 151.652 263.08 150.709 259.344C150.049 256.716 149.366 253.993 149.731 251.918L140.82 250.339C140.644 251.306 140.573 252.26 140.573 253.215C140.573 256.173 141.28 259.002 141.94 261.572C142.306 263.021 142.836 265.108 142.836 266.168C142.836 266.357 142.835 266.51 142.789 266.628C142.388 267.477 141.563 268.148 140.149 269.268C138.157 270.836 135.682 272.781 134.067 276.34C133.23 278.202 132.947 280.006 132.947 281.656C132.947 283.824 133.43 285.746 133.807 287.243C133.984 287.95 134.244 288.987 134.255 289.411C133.324 292.264 131.698 295.894 127.407 298.84" fill="black"/>
<path d="M87.6514 280.407C88.2525 281.526 88.6414 282.575 88.9007 283.565C89.7965 284.143 91.1166 285.003 91.3759 285.428C91.7767 286.488 91.3995 289.47 91.1402 291.45C91.0577 292.099 90.9752 292.723 90.9162 293.336C93.0732 295.493 96.4677 297.992 98.2946 298.911L94.8883 305.736C96.5737 308.14 98.5421 310.545 100.334 312.513L107.028 306.419C103.174 302.176 100.463 298.051 99.815 296.236C99.8139 296.153 99.8138 296.071 99.8138 295.953C99.8138 295.163 100.002 293.655 100.144 292.606C100.368 290.826 100.615 288.928 100.615 287.054C100.615 285.357 100.415 283.671 99.8256 282.127C98.6352 279.016 95.8418 277.236 93.6142 275.81C92.2941 274.973 90.4907 273.818 90.3964 273.087C90.3729 272.899 90.3611 272.722 90.3611 272.533C90.3611 271.626 90.644 270.694 91.1508 269.115C91.8933 266.817 92.8716 263.776 92.8716 259.332C92.8716 258.731 92.848 258.107 92.8127 257.458L83.7725 258C83.9964 261.772 83.2774 263.988 82.5231 266.369C81.8159 268.573 81.0026 271.083 81.3916 274.23C81.4152 274.384 81.4387 274.525 81.4623 274.678C83.5603 275.786 86.0119 277.377 87.6502 280.418" fill="black"/>
<path d="M68.5566 261.665C68.7098 263.433 68.4269 264.683 68.1087 266.144C67.5547 268.631 66.8711 271.719 68.922 275.797C70.7489 279.439 73.8841 281.007 76.1706 282.138C78.0211 283.058 79.0937 283.635 79.6948 284.72C80.4373 286.087 80.3548 287.03 80.2134 288.597C80.0484 290.507 79.8127 293.135 81.4746 295.964C84.1854 300.584 91.2455 305.523 94.2511 307.02L94.8876 305.747L98.2938 298.922C96.4552 298.003 93.0607 295.516 90.9155 293.347C90.1965 292.628 89.619 291.945 89.2772 291.367C89.1122 291.096 89.1004 290.754 89.23 289.399C89.3597 287.937 89.5247 285.934 88.9 283.576C88.6407 282.586 88.2518 281.526 87.6507 280.418C86.0006 277.377 83.5608 275.786 81.451 274.678C81.0149 274.454 80.5906 274.23 80.1898 274.029C78.2568 273.075 77.4318 272.603 77.0075 271.743C76.4182 270.564 76.4889 270.104 76.9368 268.089C77.3139 266.368 77.8443 264.023 77.5732 260.876C77.0546 254.9 72.4343 249.891 68.7098 245.871L65.9636 242.795L58.9624 248.523L62.0622 252.012C64.8438 255.018 68.2973 258.766 68.5566 261.654" fill="black"/>
<path d="M108.631 267.795C108.631 274.749 110.305 284.095 118.461 284.095C126.606 284.095 128.762 273.558 128.762 269.244C128.762 265.437 122.975 249.313 121.573 234.71C119.769 234.686 118.261 234.168 117 233.343C115.738 249.726 108.572 261.465 108.572 267.759" fill="black"/>
<path d="M236.279 136.022C218.481 138.851 137.154 153.466 129.375 154.998C117.813 157.214 115.114 146.748 109.857 144.249C109.857 144.249 117.648 190.016 118.107 193.422C119.734 205.656 111.366 211.95 111.366 221.097C111.366 224.409 112.804 230.526 117.011 233.296C118.272 234.121 119.781 234.627 121.584 234.663C121.643 234.663 121.691 234.663 121.749 234.663C129.67 234.663 131.367 226.742 131.367 220.708C131.367 211.373 126.841 205.998 126.841 203.735C126.841 201.472 128.727 198.832 135.893 197.7C143.059 196.569 232.66 181.011 246.804 178.724C260.948 176.438 271.414 164.863 269.151 152.983C266.888 141.078 254.159 133.181 236.338 136.01M242.467 169.389C230.397 170.144 124.955 180.327 124.955 180.327L122.692 165.429C122.692 165.429 227.003 147.325 239.261 145.274C251.519 143.2 260.193 148.103 260.193 155.835C260.193 163.567 254.536 168.659 242.514 169.413" fill="black"/>
<path d="M430.402 228.781C427.962 241.369 422.717 253.45 422.717 256.762C422.717 261.076 424.002 271.849 432.146 271.849C440.29 271.849 442.872 262.267 442.872 255.348C442.872 249.856 438.063 240.969 436.047 228.121C434.869 228.64 433.525 228.946 431.981 228.946C431.427 228.946 430.92 228.887 430.425 228.793" fill="black"/>
<path d="M299.454 176.096C313.598 178.359 412.722 194.872 419.912 196.015C424.002 196.663 427.349 199.362 427.349 200.482C427.349 201.602 422.976 205.786 422.976 213.129C422.976 218.739 423.849 227.579 430.355 228.793C430.838 228.887 431.357 228.946 431.911 228.946C433.455 228.946 434.798 228.652 435.977 228.121C440.856 225.964 442.789 219.882 442.789 214.343C442.789 201.413 436.071 203.959 437.686 191.713C438.134 188.318 444.663 143.93 444.663 143.93C439.383 146.382 437.981 155.505 426.418 153.289C418.556 151.78 327.647 135.008 309.85 132.179C292.052 129.351 279.959 138.615 277.673 150.496C275.386 162.376 285.31 173.821 299.454 176.084M310.062 141.019C322.332 143.035 432.759 162.353 432.759 162.353L430.496 177.251C430.496 177.251 316.285 167.256 304.263 166.502C292.194 165.747 286.725 161.598 286.725 153.866C286.725 146.135 296.343 138.78 310.109 141.043" fill="black"/>
<path d="M470.358 242.926C470.417 244.199 470.453 244.894 469.757 246.462C468.437 249.385 466.139 253.027 462.685 253.852L464.748 262.668C468.673 261.749 474.165 258.837 478.067 250.174C479.67 246.638 479.54 244.163 479.457 242.466C479.387 241.052 479.351 240.462 480.554 238.565C481.414 237.221 481.65 237.162 482.675 236.891C484.997 236.278 487.661 235.276 489.959 230.998C492.576 226.118 491.727 222.064 491.114 219.093C490.784 217.467 490.513 216.194 490.725 214.862C491.044 212.835 492.47 211.279 495.192 208.486C496.666 206.965 498.339 205.244 500.037 203.087L492.965 197.489C491.574 199.269 490.136 200.742 488.745 202.168C485.728 205.268 482.616 208.474 481.827 213.436C481.355 216.394 481.874 218.905 482.298 220.92C482.84 223.56 483.041 224.798 482.027 226.696C481.414 227.851 481.39 227.851 480.424 228.11C478.149 228.711 475.497 229.678 472.951 233.697C470.417 237.692 470.323 240.333 470.453 242.902" fill="black"/>
<path d="M454.917 258.248C459.255 254.429 460.599 253.05 462.579 246.685C463.863 242.548 463.569 239.814 463.333 237.621C463.144 235.877 463.015 234.616 463.604 232.365C463.911 231.21 464.017 231.162 465.278 230.479C467.211 229.442 470.44 227.709 471.866 222.099C473.175 216.948 471.69 213.707 470.605 211.338C469.757 209.499 469.25 208.379 469.698 205.963L460.787 204.336C459.844 209.558 461.306 212.764 462.378 215.097C463.227 216.948 463.616 217.797 463.097 219.812C462.649 221.568 462.331 221.733 460.999 222.452C459.196 223.419 456.167 225.045 454.847 229.984C453.81 233.862 454.092 236.455 454.316 238.541C454.517 240.379 454.646 241.605 453.916 243.939C452.607 248.147 452.466 248.276 448.918 251.388L446.808 253.262L452.867 259.992L454.894 258.189" fill="black"/>
<path d="M387.852 228.074C388.877 232.612 392.107 234.604 394.464 236.065C396.609 237.397 397.34 237.939 397.635 239.366C398.106 241.581 397.894 242.218 397.576 243.161C396.939 245.047 396.456 247.027 397.422 250.445C399.12 256.456 400.935 258.413 406.97 264.435L413.37 258.035C407.653 252.319 407.182 251.659 406.121 247.958C405.838 246.968 405.862 246.897 406.144 246.037C406.804 244.057 407.382 241.758 406.474 237.48C405.343 232.152 401.642 229.877 399.202 228.369C397.352 227.226 396.845 226.813 396.668 226.094C396.35 224.656 396.692 223.56 397.458 221.403C398.377 218.786 399.532 215.533 398.99 210.878L389.997 211.938C390.303 214.496 389.691 216.217 388.924 218.386C388.04 220.896 386.932 224.043 387.84 228.086" fill="black"/>
<path d="M381.723 225.717C381.723 224.103 381.476 222.229 380.721 219.989C378.623 213.825 376.443 211.444 373.921 208.698L371.386 205.822L364.421 211.597L367.261 214.815C369.536 217.29 370.679 218.539 372.164 222.9C372.942 225.199 372.707 226.401 372.365 228.216C371.917 230.55 371.292 233.744 373.296 238.258C375.512 243.232 378.824 244.458 381.028 245.271C382.489 245.813 382.749 245.908 383.267 247.004C384.139 248.89 384.033 249.432 383.821 250.41C383.55 251.706 383.09 253.875 384.352 256.716C385.966 260.393 390.528 269.068 397.918 270.152L399.238 261.195C397.423 260.924 394.523 257.364 392.637 253.074L392.567 252.862L392.685 252.26C392.873 251.365 393.038 250.41 393.038 249.326C393.038 247.687 392.673 245.743 391.494 243.185C389.408 238.694 386.261 237.527 384.175 236.761C382.619 236.184 382.254 236.054 381.594 234.569C381.146 233.555 380.981 232.836 380.981 232.106C380.981 231.457 381.11 230.809 381.275 229.925C381.499 228.758 381.77 227.379 381.77 225.706" fill="black"/>
<path d="M440.892 278.52C432.017 285.698 412.145 286.252 401.643 276.681L399.427 274.666L396.705 275.927C392.662 277.801 387.276 277.954 382.95 278.072C377.446 278.225 373.097 278.355 370.869 281.832C369.254 284.354 369.407 287.843 371.305 291.249C371.611 291.815 371.977 292.381 372.378 292.946H392.12C384.777 292.946 380.923 289.481 379.497 287.289C380.652 287.206 382.031 287.147 383.209 287.124C387.547 286.994 392.768 286.758 397.718 285.132C403.117 289.245 409.705 291.603 416.424 292.498C421.291 286.77 429.507 284.672 434.315 284.672V291.449C438.064 290.471 441.517 289.021 444.405 287.147C449.214 289.222 455.955 293.312 460.646 296.152C464.725 298.627 466.74 299.841 468.084 300.348C472.185 301.928 489.299 303.33 499.895 303.33V294.278C487.92 294.278 473.588 292.699 471.372 291.897C470.653 291.603 467.73 289.835 465.396 288.409C459.303 284.708 450.958 279.639 445.242 277.683L442.896 276.905L440.975 278.461" fill="black"/>
<path d="M392.096 292.9H358.327C343.123 292.9 341.496 302.211 341.496 305.476C341.496 306.384 341.602 307.539 341.921 308.776H355.64C351.609 308.776 350.324 307.197 350.324 305.511C350.324 303.826 351.868 301.975 358.327 301.975H412.533C412.828 298.298 414.136 295.304 416.022 292.923H392.096" fill="black"/>
<path d="M421.679 301.976H422.976L450.037 295.658L434.597 292.924H434.314V293.702C434.196 293.702 422.987 294.209 421.667 301.952" fill="black"/>
<path d="M336.699 308.812C327.977 308.812 322.108 315.66 322.108 322.06C322.108 328.165 327.529 335.532 337.147 335.532H339.964C340.612 332.055 343.382 327.104 353.695 326.539V326.48H337.194C333.8 326.48 331.301 323.156 331.207 322.048C331.207 320.869 332.857 317.864 336.746 317.864H395.549V308.812H336.746" fill="black"/>
<path d="M339.881 335.449C339.74 336.192 339.705 336.852 339.705 337.406C339.705 344.831 346.246 350.878 357.384 350.878H357.596C359.294 345.857 365.482 342.321 373.709 341.873V341.814H357.384C351.774 341.814 348.709 338.891 348.709 337.394C348.709 336.109 352.175 335.438 355.593 335.438H395.396V326.385H355.593C354.886 326.385 354.226 326.409 353.577 326.444C343.264 327.01 340.494 331.96 339.846 335.438" fill="black"/>
<path d="M357.68 350.889C357.373 351.797 357.196 352.751 357.196 353.742C357.196 359.423 362.288 365.528 373.65 366.53C381.877 367.213 417.378 368.333 423.884 368.333C429.188 368.333 451.417 367.614 463.392 364.125C466.928 363.088 469.934 361.697 472.822 360.354C479.045 357.454 485.48 354.46 499.459 354.46V345.408C483.465 345.408 475.768 348.992 469.003 352.139C466.304 353.388 463.758 354.578 460.858 355.427C450.804 358.362 430.237 359.269 423.884 359.269C417.873 359.269 382.396 358.161 374.393 357.501C368.641 357.018 366.248 354.814 366.248 353.742C366.449 353.188 369.218 350.889 375.583 350.889H412.027L403.305 341.837H375.583C374.982 341.837 374.381 341.861 373.792 341.896C365.553 342.344 359.377 345.868 357.68 350.889Z" fill="black"/>
<path d="M416.376 292.428C416.246 292.581 416.116 292.723 415.998 292.876C414.113 295.257 412.804 298.251 412.51 301.928C412.474 302.435 412.439 302.942 412.439 303.472C412.439 311.888 416.871 326.574 446.573 330.333L447.704 321.352C437.91 320.115 421.538 316.143 421.538 303.472C421.538 302.93 421.585 302.411 421.668 301.928C423 294.161 434.197 293.678 434.315 293.678V284.625C429.518 284.625 421.232 286.723 416.423 292.44" fill="black"/>
</g>
<defs>
<clipPath id="clip0_155_426">
<rect width="500" height="500" fill="white"/>
</clipPath>
</defs>
</svg>
