<svg width="500" height="500" viewBox="0 0 500 500" fill="none" xmlns="http://www.w3.org/2000/svg">
<path d="M249.984 41C224.272 89.5662 254.269 116.706 221.415 186.698C202.846 172.414 212.845 119.563 178.563 118.134C182.848 135.275 179.991 140.989 178.563 146.703C174.278 170.986 167.136 190.984 182.848 220.98C158.565 209.553 157.137 188.127 137.139 173.843C141.424 196.697 131.425 243.835 158.565 289.544C134.282 286.688 125.711 278.117 100 252.406C127.14 395.247 148.566 399.533 249.984 408.103C241.413 406.675 189.99 398.104 171.421 339.539C171.421 325.255 169.992 352.395 219.987 353.823C188.562 303.829 197.132 313.828 199.989 285.259C214.273 303.829 202.846 306.685 238.556 320.97C227.129 283.831 257.126 259.548 249.984 216.695C258.554 235.265 287.123 232.408 285.694 320.97C309.977 293.83 311.406 312.399 322.833 283.831C324.261 299.543 331.403 319.541 298.55 353.823C307.12 356.68 321.405 358.108 342.831 342.396C321.405 368.107 341.402 368.107 285.694 408.103C355.687 409.531 401.396 365.251 399.967 269.547C397.111 278.117 395.682 295.258 358.543 299.543C381.398 276.689 394.254 229.551 375.684 192.412C368.542 198.126 358.543 226.694 334.26 233.836C345.688 213.838 342.831 188.127 342.831 188.127C342.831 188.127 347.116 152.416 325.69 123.848C319.976 166.701 319.976 189.555 292.836 195.269C297.121 170.986 298.55 158.13 284.266 129.562C269.982 99.5651 252.841 69.5683 249.984 41ZM134.282 432.386V458.098H378.541V432.386H134.282Z" fill="black"/>
</svg>
