<svg width="500" height="500" viewBox="0 0 500 500" fill="none" xmlns="http://www.w3.org/2000/svg">
<path d="M246.08 5C232.807 19.3656 246.038 78.4721 218.621 133.881C204.407 118.719 198.707 90.2847 182.597 76.0705C191.096 97.8657 167.42 95.9734 175.949 171.783C163.078 168.565 162.681 163.262 134.253 129.148C139.546 162.23 136.184 183.17 142.817 220.127C142.817 220.127 135.965 218.683 103 194.509C113.699 230.548 95.008 306.433 137.596 360.089L137.446 359.977C140.723 408.532 174.949 448.641 220.537 460.76H138.16V495.657H367.899V460.76H278.31C319.554 449.794 351.473 415.905 359.597 373.575V373.537C370.888 355.491 421.387 297.073 382.549 203.073C382.549 203.073 371.154 223.962 350.319 229.593C350.319 229.593 377.014 185.096 355.052 149.057C355.052 149.057 348.615 175.39 326.654 176.516C326.654 176.516 337.344 120.352 308.624 84.5975C298.2 108.288 314.865 118.105 280.188 137.675C275.444 64.6837 260.294 52.3808 246.08 5ZM238.492 164.195C251.733 172.343 261.258 186.357 264.148 212.652C265.42 224.218 269.743 230.846 272.9 242.59C265.329 240.976 257.474 240.111 249.423 240.111C239.585 240.111 230.046 241.373 220.95 243.755C218.934 205.448 238.984 213.859 238.492 164.195ZM190.185 191.691C190.185 191.691 195.485 225.083 209.005 247.624C199.479 251.306 190.59 256.272 182.522 262.274C178.081 227.657 188.139 219.829 190.185 191.691ZM307.684 208.745C307.684 208.745 312.649 242.18 319.404 264.603C308.699 256.048 296.386 249.416 283.005 245.22C288.644 233.679 297.319 218.482 307.684 208.745ZM138.047 245.708C138.047 245.708 148.108 255.856 174.409 268.885C165.18 277.182 157.345 287 151.269 297.922C147.168 284.489 141.412 264.218 138.047 245.708ZM360.762 258.029C361.645 270.386 361.66 300.448 356.029 316.779L356.066 317.342C351.091 302.173 342.974 288.435 332.476 276.886C339.248 271.474 350.762 262.844 360.762 258.029ZM248.447 271.139C292.718 271.139 328.645 307.103 328.645 351.375C328.645 395.647 292.718 431.573 248.447 431.573C204.175 431.573 168.248 395.647 168.248 351.375C168.248 307.103 204.175 271.139 248.447 271.139Z" fill="black"/>
</svg>
