<svg width="500" height="500" viewBox="0 0 500 500" fill="none" xmlns="http://www.w3.org/2000/svg">
<path d="M120.178 3.2264C95.8926 19.4394 75.6677 38.1241 58.4101 60.3279C22.2942 106.663 2.18648 163.136 0.273309 223.714L0 232.093H87.4981H175.035V230.208C175.035 220.405 178.51 205.616 183.078 196.064C189.325 182.952 199.36 171.054 210.214 163.974L212.557 162.465L211.268 160.036C203.616 145.582 125.215 0.0424575 125.059 0.0424575C124.941 0.0843515 122.755 1.46685 120.178 3.2264Z" fill="black"/>
<path d="M372.365 4.52513C371.076 6.99688 351.554 43.3609 328.948 85.3386C306.341 127.358 287.834 161.879 287.795 162.088C287.717 162.298 289.474 163.764 291.66 165.314C306.419 175.997 317.117 191.749 322.037 210.099C323.364 215.042 324.457 222.081 324.809 227.652L325.082 232.093H412.541H500L499.727 223.714C497.072 140.513 459.824 65.0619 397.002 15.5433C391.262 11.0187 375.449 -0.0832038 374.825 0.00058414C374.785 0.00058414 373.692 2.05339 372.365 4.52513Z" fill="black"/>
<path d="M242.582 179.055C224.231 182.616 210.409 194.389 203.733 212.152C197.525 228.784 199.36 246.882 208.808 262.299C211.268 266.279 218.14 273.652 221.888 276.291C230.634 282.492 239.536 285.424 249.805 285.424C256.247 285.466 258.785 285.047 264.642 283.162C272.724 280.481 278.971 276.417 285.179 269.798C290.801 263.807 294.393 257.732 297.048 249.772C306.302 221.955 292.324 190.995 266.203 181.485C264.29 180.773 261.362 179.893 259.761 179.516C255.778 178.595 246.33 178.343 242.582 179.055Z" fill="black"/>
<path d="M212.361 302.014C211.932 302.852 152.624 413.117 140.403 435.824C132.36 450.738 125.722 463.222 125.605 463.515C125.332 464.228 128.573 466.322 137.748 471.308C166.289 486.809 195.299 495.732 228.565 499.251C238.287 500.257 261.518 500.257 271.435 499.209C304.428 495.816 333.672 486.809 362.252 471.308C371.427 466.322 374.668 464.228 374.395 463.515C374.239 463.055 298.298 321.662 289.747 305.91L287.404 301.595L285.335 302.852C282.133 304.821 275.535 307.712 271.162 309.094C264.329 311.315 258.121 312.236 250.39 312.278C237.896 312.32 227.432 309.765 216.656 303.941C214.392 302.726 212.439 301.847 212.361 302.014Z" fill="black"/>
</svg>
