<svg width="500" height="500" viewBox="0 0 500 500" fill="none" xmlns="http://www.w3.org/2000/svg">
<path d="M233.477 311.693C244.889 311.693 241.034 307.075 250.783 307.075C258.728 307.075 256.038 311.568 266.812 311.568C276.81 311.568 279.251 304.011 279.251 300.932C279.251 296.19 273.87 293.139 271.43 286.705C268.989 280.299 264.247 256.587 249.77 256.587C244.446 256.587 241.312 258.764 237.332 263.507C230.801 271.202 230.274 284.126 226.239 289.146C222.259 294.013 220.72 299.241 220.72 301.972C220.72 304.926 222.134 311.679 233.547 311.679M121.852 392.812L110.897 397.998C99.9287 403.281 86.2424 414.319 83.3997 436.963C82.9283 440.679 74.539 450.538 65.9418 450.538C60.6586 450.538 54.4048 447.044 53.5451 441.844C52.0475 432.914 45.2945 400.868 45.0033 399.509C44.1713 395.557 40.2887 393.02 36.3229 393.866C32.357 394.712 29.8334 398.58 30.6792 402.546C30.6806 402.629 31.7331 407.608 31.7331 407.608C19.0036 401.534 18.4767 400.439 18.4767 396.057C18.4767 390.649 30.9565 383.757 40.8018 383.757C49.0801 383.757 55.4171 386.128 61.56 388.416C67.1066 390.496 72.8334 392.632 79.3091 392.632C88.6274 392.632 91.2898 391.689 95.5746 389.373L99.1799 387.612C104.824 385.241 148.6 364.344 167.888 355.123C170.579 358.978 173.796 362.846 177.512 366.563M172.936 294.457C189.978 305.037 189.714 304.565 189.798 311.235C189.59 313.038 189.52 316.005 189.52 321.51C189.52 339.675 224.88 354.929 247.094 354.929C271.735 354.929 304.363 338.289 304.363 320.969V311.623C304.363 304.246 305.139 303.567 319.38 295.205V329.858C319.38 339.551 306.096 360.239 282.093 372.317L281.317 372.705C269.697 378.543 255.248 385.185 249.285 385.185C243.78 385.185 225.143 379.75 210.32 372.276C186.303 360.212 173.033 339.509 173.033 329.816L172.936 294.457ZM23.1774 237.743C23.1497 237.744 23.1219 237.784 23.0803 237.798C23.1081 237.797 23.1358 237.756 23.1774 237.743ZM454.288 224.015C457.519 224.015 458.919 225.069 459.696 225.873C464.41 230.74 463.953 244.981 463.634 255.381L463.454 263.631C463.37 267.68 466.574 270.856 470.609 270.953C474.644 271.036 478 267.68 478.097 263.631L478.166 260.678C478.582 261.801 478.776 262.758 478.776 263.382V277.47C478.776 281.464 477.611 286.234 472.092 286.234C467.558 286.234 461.748 283.405 456.146 280.687C449.684 277.539 443.527 274.558 437.329 274.558L436.275 274.517C432.628 274.336 425.029 273.99 414.324 278.995L414.116 279.093L334.037 319.721V299.365C345.879 293.957 391.306 273.13 402.538 267.334C415.198 260.816 424.863 246.881 430.548 238.547L432.753 235.399C436.566 230.158 444.498 224.042 454.329 224.042L454.288 224.015ZM84.8835 279.065L84.7725 279.023C74.0676 274.004 66.4687 274.364 62.8218 274.544L61.768 274.586C55.528 274.586 49.4129 277.567 42.9511 280.715C37.4045 283.447 31.5528 286.261 27.0046 286.261C21.4718 286.261 20.3209 281.505 20.3209 277.498V263.409C20.3209 262.785 20.515 261.829 20.931 260.705L21.0004 263.645C21.0836 267.694 24.4393 271.05 28.4883 270.967C32.5235 270.884 35.7405 267.694 35.6434 263.645L35.4632 255.395C35.1304 244.995 34.6866 230.754 39.3874 225.887C40.1639 225.096 41.5644 224.029 44.7953 224.029C54.6267 224.029 62.5722 230.144 66.3855 235.385L68.5903 238.533C74.331 246.853 83.9822 260.858 96.6007 267.32C106.418 272.381 141.39 288.439 158.418 296.259V316.296L84.8835 279.065ZM247.261 50.5444C287.973 50.5444 307.746 67.5309 332.817 90.3136L346.101 102.225L351.052 106.524C366.97 120.321 382.015 133.355 382.015 141.079C382.015 150.647 378.674 160.187 374.139 169.089C374.666 165.831 374.694 163.681 374.694 159.535C374.694 143.769 370.34 136.974 354.241 120.14L343.661 130.263C358.747 146.029 360.051 149.385 360.051 159.521C360.051 165.831 360.051 165.831 356.848 180.044L352.605 199.097L353.09 200.83C353.145 201.01 358.068 219.106 358.068 236.467C358.068 254.632 346.975 261.399 332.97 270.024L328.56 272.742L313.459 281.838C297.513 291.198 289.567 295.33 289.567 311.679V321.025C289.567 326.447 269.073 340.341 247.233 340.341C227.182 340.341 205.106 326.474 204.302 321.427C204.302 314.729 204.593 311.831 204.593 311.831C204.593 295.802 196.828 291.295 181.339 282.31C177.027 279.814 171.674 276.694 165.365 272.742L160.955 270.024C146.895 261.427 136.855 256.546 136.855 236.467C136.855 215.348 141.889 207.805 141.889 201.287C141.889 194.77 134.858 169.394 134.858 165.415C134.858 164.902 134.914 160.617 134.914 160.617C134.914 151.118 136.12 143.187 150.805 130.138C151.997 129.084 153.814 125.853 152.358 124.065C150.902 122.276 150.32 121.527 148.628 119.53C147.782 118.532 146.243 118.144 144.759 118.13C143.275 118.13 141.833 118.518 141.182 119.1C123.807 134.534 120.243 146.223 120.243 160.617C120.243 160.617 120.188 164.902 120.188 165.539C120.188 169.45 120.021 167.481 122.032 175.704C115.764 165.082 110.495 153.129 110.495 141.107C110.495 133.633 124.819 120.654 139.989 106.926L146.617 100.908C151.859 96.1237 156.463 91.6586 160.817 87.3323C170.856 77.4732 178.774 69.6941 187.995 65.0072C208.781 54.4686 227.653 50.586 247.371 50.586M160.983 342.476C135.58 354.623 98.4449 372.331 93.6332 374.342L88.7522 376.713C86.6307 377.864 85.9789 378.197 79.4478 378.197C75.6345 378.197 71.5577 376.671 66.8292 374.91C60.1594 372.414 51.8673 369.364 40.9404 369.364C25.8814 369.364 4 379.861 4 396.306C4 410.949 13.3876 415.345 28.932 422.653L35.6157 425.828C37.1826 433.51 38.6802 441.012 39.2626 444.52C41.4396 457.61 54.6544 465.459 66.1082 465.459C82.4707 465.459 96.7532 449.443 98.1399 439.112C99.79 425.981 106.099 416.94 117.442 411.49L128.244 406.373L189.95 377.323C194.179 380.36 198.769 383.189 203.706 385.643C215.784 391.716 238.649 400.702 249.299 400.702C258.756 400.702 272.872 393.575 288.264 385.837C294.864 382.523 300.522 378.904 305.583 374.924L381.544 411.462C392.887 416.926 399.196 425.953 400.846 439.085C402.15 449.471 416.474 465.431 432.878 465.431C444.359 465.431 457.533 457.61 459.724 444.492C460.306 440.984 461.804 433.482 463.37 425.8L470.068 422.625C485.612 415.317 495 410.908 495 396.279C495 379.833 473.132 369.336 458.06 369.336C447.133 369.336 438.841 372.442 432.171 374.882C427.456 376.644 423.379 378.169 419.552 378.169C413.021 378.169 412.369 377.822 410.248 376.685L405.367 374.314C400.222 372.151 357.472 351.767 332.346 339.745C332.692 338.691 332.983 337.651 333.219 336.625C350.428 327.917 420.301 292.515 420.578 292.377C427.983 288.924 432.559 289.132 435.596 289.271L437.343 289.326C440.199 289.326 445.053 291.683 449.74 293.971C456.506 297.272 464.188 301.015 472.065 301.015C484.683 301.015 493.391 291.392 493.391 277.609V263.52C493.391 255.866 488.108 245.203 478.277 239.24C477.736 230.144 475.823 221.616 470.207 215.82C466.144 211.66 460.791 209.51 454.288 209.51C438.896 209.51 426.985 218.496 420.869 226.899L418.457 230.352C413.811 237.077 405.186 249.598 395.799 254.424C389.046 257.904 369.161 267.153 352.189 274.974C363.212 266.932 372.642 256.13 372.642 236.564C372.642 224.334 370.548 212.159 368.939 204.671L371.574 200.761C382.126 185.521 396.534 164.708 396.534 141.231C396.534 126.824 381.419 113.734 360.508 95.6106L355.586 91.3397L342.551 79.6502C317.314 56.715 293.602 35 247.177 35C225.379 35 203.775 40.5466 181.187 52.0281C169.941 57.7272 160.872 66.6434 150.403 76.9601C146.09 81.1894 141.639 85.5712 136.592 90.1749L130.005 96.1653C110.093 114.192 95.6993 127.226 95.6993 141.204C95.6993 164.624 110.148 185.493 120.659 200.733L122.531 203.506C121.034 214.225 119.48 228.383 119.48 238.311C119.48 251.97 125.776 261.593 133.999 269.095C120.839 262.98 108.235 257.059 103.104 254.424C93.7164 249.598 85.0915 237.077 80.4462 230.352L78.0334 226.899C71.9183 218.44 59.8682 209.51 44.6151 209.51C38.1117 209.51 32.7453 211.632 28.6963 215.82C23.0803 221.616 21.1529 230.144 20.626 239.254C20.6537 239.253 20.6814 239.226 20.723 239.199C20.6953 239.2 20.6676 239.226 20.626 239.254C10.7946 245.217 5.49759 255.88 5.49759 263.534V277.623C5.49759 291.406 14.2751 301.029 26.8382 301.029C34.756 301.029 42.4241 297.285 49.1633 293.985C53.8502 291.697 58.6896 289.34 61.56 289.34L63.3072 289.284C66.3439 289.146 70.9199 288.924 78.3246 292.391C78.5881 292.515 134.068 320.651 158.376 332.881M325.884 352.849C340.818 359.99 393.539 385.185 399.654 387.792L403.259 389.553C407.53 391.869 410.192 392.812 419.524 392.812C425.986 392.812 431.727 390.663 437.274 388.597C443.403 386.309 449.753 383.937 458.032 383.937C467.877 383.937 480.357 390.829 480.357 396.237C480.357 400.619 479.83 401.714 467.101 407.788C467.738 404.765 468.14 402.81 468.168 402.74C469 398.788 466.477 394.906 462.511 394.06C458.559 393.228 454.676 395.752 453.844 399.704C453.553 401.063 446.8 433.122 445.302 442.038C444.429 447.238 438.189 450.719 432.906 450.719C424.308 450.719 415.919 440.859 415.448 437.143C412.605 414.458 398.933 403.42 387.964 398.178L317.245 364.164C320.642 360.475 323.554 356.676 325.967 352.932M306.831 251.567C331.236 251.567 341.497 220.922 341.497 213.032C341.497 205.142 335.258 201.8 331.583 201.8H285.158C280.207 201.8 268.282 205.836 268.282 213.545C268.282 216.43 270.445 222.781 275.105 228.937C283.147 239.587 290.122 251.512 306.817 251.512M185.499 251.567C202.139 251.567 209.211 239.642 217.212 228.993C221.871 222.822 224.034 216.513 224.034 213.601C224.034 205.891 212.109 201.856 207.159 201.856H160.733C157.059 201.856 150.833 205.156 150.833 213.088C150.833 220.978 161.108 251.623 185.499 251.623M172.88 281.797H162.009C167.223 284.195 171.175 285.956 172.88 286.775V281.797ZM158.459 332.687C158.806 335.654 159.652 338.871 160.969 342.227L158.459 332.687Z" fill="black"/>
</svg>
