<svg width="500" height="500" viewBox="0 0 500 500" fill="none" xmlns="http://www.w3.org/2000/svg">
<g clip-path="url(#clip0_155_318)">
<path d="M285.622 89.0074C285.519 89.0204 285.448 89.1298 285.365 89.3382C285.295 89.5467 272.026 127.37 255.879 173.421C239.732 219.473 226.485 257.215 226.429 257.284C226.263 257.451 225.092 257.028 225.106 256.806C225.12 256.653 259.612 149.329 259.96 148.384C260.001 148.273 258.97 147.576 256.871 146.325C253.745 144.463 253.379 144.264 253.379 144.487C253.379 144.681 224.647 256.677 224.591 256.733C224.563 256.774 223.78 256.592 222.863 256.328C220.668 255.703 216.935 254.943 214.517 254.637C211.808 254.303 205.639 254.29 203.194 254.637C191.771 256.235 182.516 260.96 174.443 269.27C168.773 275.106 164.259 282.675 161.869 290.373C161.577 291.29 161.299 292.082 161.244 292.138C161.188 292.193 156.8 288.985 151.464 284.969C146.128 280.953 141.712 277.684 141.684 277.726C141.657 277.754 142.194 278.855 142.861 280.189L144.074 282.616L152.457 288.241C160.558 293.674 160.799 293.872 160.729 294.234C160.66 294.581 160.931 294.917 163.266 297.432C164.697 298.989 166.272 300.668 166.759 301.182L167.678 302.101L170.141 301.954L172.604 301.807L177.237 304.896C179.78 306.577 181.701 307.811 181.465 307.616C181.243 307.422 179.399 306.006 177.384 304.491C175.383 302.99 173.831 301.748 173.928 301.734C174.025 301.72 177.239 301.538 181.061 301.329L188.009 300.962L198.01 305.999C203.54 308.75 208.115 310.999 208.157 310.999C208.199 310.999 210.711 308.004 213.782 304.307C216.853 300.625 219.457 297.507 219.554 297.395C219.707 297.215 219.304 296.163 217.164 290.925C215.761 287.492 214.637 284.666 214.664 284.638C214.692 284.624 218.193 284.988 222.459 285.447C226.725 285.905 230.234 286.26 230.29 286.219C230.331 286.163 230.892 284.042 231.503 281.513L232.643 276.88L236.099 276.843C238.003 276.83 240.087 276.861 240.768 276.917L242.018 277.027L230.18 289.969C223.648 297.07 218.2 303.047 218.047 303.241C217.519 303.867 222.225 299.151 233.231 288.02L244.077 277.027L248.121 276.954L252.129 276.88L251.43 275.851C251.027 275.281 250.267 274.284 249.739 273.645C249.211 273.006 248.806 272.45 248.82 272.395C248.848 272.339 250.359 270.764 252.165 268.902L255.438 265.556L255.805 266.328C256 266.773 256.136 267.178 256.136 267.248C256.136 267.47 256.318 267.401 261.835 264.858C264.684 263.552 267.073 262.546 267.129 262.615C267.185 262.671 267.708 264.451 268.306 266.549C268.889 268.647 269.427 270.427 269.482 270.483C269.579 270.594 286.386 257.022 286.872 256.438C286.983 256.286 289.073 252.485 291.505 247.982C293.937 243.466 296.09 239.529 296.284 239.195C296.479 238.862 296.565 238.579 296.468 238.607C296.385 238.635 292.925 241.498 288.784 244.931L281.247 251.144L275.843 251.291C272.855 251.361 270.196 251.393 269.96 251.365C269.557 251.323 272.544 248.283 320.513 199.856C348.541 171.564 371.507 148.366 371.507 148.31C371.507 148.255 370.178 146.894 368.566 145.296C365.814 142.544 365.626 142.412 365.404 142.649C365.279 142.774 341.963 168.156 313.601 199.047L262.055 255.225L257.974 258.093C255.737 259.663 253.83 261.024 253.746 261.108C253.649 261.205 253.758 261.562 254.077 262.284C254.466 263.201 254.501 263.363 254.335 263.571C254.182 263.766 248.819 269.679 247.79 270.777C247.54 271.041 247.529 271.025 246.32 269.858C243.971 267.537 241.75 265.75 239.04 263.902L237.717 262.983L263.269 219.084C283.418 184.47 288.776 175.164 288.637 175.039C288.554 174.942 287.233 174.118 285.733 173.201L282.975 171.51L282.497 172.355C282.247 172.828 271.891 193.285 259.482 217.798C246.684 243.116 236.872 262.358 236.761 262.358C236.622 262.358 236.64 262.192 236.834 261.622C236.987 261.233 250.543 223.428 266.982 177.613C283.435 131.798 296.864 94.2747 296.836 94.1913C296.78 94.0663 286.789 89.3965 285.733 89.0074C285.691 88.9935 285.656 89.0026 285.622 89.0074ZM234.922 153.164L233.488 156.73L232.091 160.333L229.371 159.267C227.856 158.669 226.581 158.218 226.54 158.274C226.498 158.33 225.856 161.338 225.106 164.965C224.369 168.592 223.75 171.679 223.709 171.804C223.667 171.971 224.28 172.306 226.503 173.348C228.101 174.098 229.448 174.763 229.518 174.819C229.573 174.874 230.256 177.328 231.062 180.26C231.854 183.178 232.542 185.6 232.569 185.628C232.597 185.655 233.73 184.04 235.106 182.025C237.719 178.203 237.712 178.216 245.952 169.267L246.393 168.789L244.003 161.068L241.614 153.347L240.584 153.274C240.015 153.218 238.517 153.177 237.239 153.164L234.922 153.164ZM424.413 187.466C424.357 187.466 424.271 187.63 424.229 187.797C423.798 189.228 419.395 202.852 419.339 202.908C419.311 202.949 416.334 203.108 412.721 203.275L406.14 203.569L404.265 204.966C403.237 205.759 402.381 206.423 402.353 206.437C402.312 206.479 400.561 217.682 400.589 217.724C400.644 217.766 410.841 223.607 410.883 223.607C410.911 223.607 412.764 221.636 415.001 219.232C417.252 216.828 419.114 214.843 419.155 214.856C419.197 214.856 422.88 217.365 427.354 220.408L435.479 225.923L435.516 223.901C435.53 222.789 435.525 218.255 435.442 213.864L435.295 205.886L429.891 196.657C426.917 191.599 424.468 187.466 424.413 187.466ZM286.137 193.091L285.88 193.422C285.741 193.603 284.908 194.805 284.005 196.069L282.387 198.349L281.357 203.496C280.802 206.331 280.328 208.784 280.328 208.937C280.342 209.132 281.508 210.23 283.968 212.356C285.969 214.079 287.634 215.481 287.718 215.481C287.787 215.481 289.044 214.057 290.475 212.32L293.086 209.121L293.674 206.253C293.994 204.683 294.326 203.035 294.409 202.577L294.556 201.731L292.975 197.466C292.114 195.132 291.363 193.183 291.321 193.128C291.265 193.072 290.678 193.655 289.997 194.378L288.784 195.701L287.461 194.378L286.137 193.091ZM371.103 200.702C371.033 200.702 340.397 222.27 302.976 248.644C265.554 275.033 234.931 296.632 234.959 296.66C234.973 296.688 265.659 277.701 303.123 254.453L371.213 212.173V206.4C371.213 203.246 371.158 200.688 371.103 200.702ZM357.646 238.203L354.889 241.291L352.095 244.343L350.771 247.909C350.035 249.868 349.434 251.484 349.448 251.512C349.503 251.567 373.731 254.472 373.786 254.416C373.814 254.402 370.181 250.724 365.735 246.291L357.646 238.203ZM469.377 240.335C469.308 240.321 415.342 254.273 349.448 271.365C283.553 288.457 229.637 302.478 229.665 302.506C229.706 302.548 472.662 247.514 472.76 247.431C472.843 247.375 469.488 240.363 469.377 240.335ZM328.197 256.806C328.127 256.82 310.169 265.278 288.269 275.63C266.369 285.983 248.343 294.518 248.232 294.601C248.079 294.712 248.128 294.721 248.379 294.638C248.865 294.471 328.882 263.599 328.895 263.571C328.909 263.571 328.805 262.051 328.638 260.188C328.471 258.146 328.294 256.806 328.197 256.806ZM501.805 265.152C501.624 265.166 442.415 275.212 370.183 287.469C297.966 299.711 238.683 309.749 238.489 309.749C238.252 309.763 237.647 309.346 236.577 308.499L234.959 307.212L234.886 312.543L234.812 317.874L230.657 320.705C228.365 322.247 226.416 323.485 226.319 323.499C226.222 323.499 224.465 322.325 222.422 320.852C217.003 316.933 216.922 316.946 222.091 320.962C224.037 322.477 225.712 323.738 225.768 323.793C225.907 323.918 219.234 328.422 219.04 328.352C218.942 328.324 202.545 314.353 198.487 310.852L197.568 310.043L189.958 316.624C185.775 320.251 182.293 323.242 182.237 323.242C182.168 323.242 177.861 322.117 172.678 320.742L163.266 318.242L165.913 318.315C167.372 318.357 169.575 318.384 170.84 318.425C173.021 318.481 166.803 318.015 159.369 317.543C157.993 317.446 150.536 316.94 142.824 316.44L128.78 315.521L128.743 315.116C128.66 314.644 128.716 314.663 127.493 315.08C126.618 315.372 126.489 315.357 123.78 315.19C122.251 315.107 120.667 315.011 120.25 314.969L119.478 314.859L118.816 313.646L118.154 312.469L113.412 312.212C110.799 312.073 108.323 311.991 107.934 311.991H107.235L106.61 312.984L106.022 314.013L105.323 313.94C104.934 313.926 90.39 312.998 73.0061 311.844C55.6222 310.705 41.1647 309.772 40.8729 309.786L40.3581 309.822L41.9758 311.55C43.3793 313.079 43.6407 313.31 44.0715 313.352C44.3494 313.379 58.1015 313.935 74.6238 314.602C91.1461 315.269 104.73 315.847 104.772 315.889C104.813 315.93 104.149 317.095 103.301 318.499C102.467 319.889 101.798 321.113 101.867 321.183C101.923 321.238 103.94 322.672 106.316 324.381L110.617 327.507L115.36 328.279C117.959 328.723 120.19 329.056 120.287 329.014C120.384 328.986 121.099 327.894 121.905 326.587L123.375 324.198H126.39H129.405V323.683C129.405 323.391 129.3 321.738 129.147 320.043C128.994 318.334 128.885 316.923 128.927 316.881C129.01 316.798 158.935 317.947 159.7 318.058C160.061 318.113 160.141 318.156 160.141 318.462C160.141 318.976 160.872 322.206 161.428 324.124C161.9 325.736 161.903 325.746 161.611 325.815C161.459 325.843 124.636 330.063 79.8078 335.191C34.9794 340.332 -1.68794 344.566 -1.70184 344.566C-1.74349 344.594 -2.03766 348.164 -1.99596 348.206C-1.9682 348.22 34.8404 343.248 79.8078 337.176C124.775 331.103 161.67 326.146 161.795 326.146C161.948 326.146 162.138 326.445 162.347 327.029C162.527 327.515 162.937 328.507 163.229 329.271C163.521 330.022 163.735 330.654 163.707 330.668C163.679 330.682 136.157 336.778 102.529 344.198C68.9007 351.619 41.2831 357.769 41.1302 357.838C40.894 357.936 40.7513 358.294 40.4317 359.934C40.2093 361.018 40.0959 361.951 40.1375 361.993C40.2071 362.048 163.409 331.7 163.964 331.477C164.048 331.449 164.317 331.836 164.553 332.323C164.858 332.934 164.921 333.237 164.81 333.279C164.713 333.307 155.431 335.815 144.148 338.83L123.596 344.272L123.338 346.367C123.186 347.521 123.067 348.486 123.081 348.5C123.095 348.514 132.682 345.377 144.368 341.514C165.685 334.483 165.826 334.437 165.84 335.007C165.84 335.09 150.868 343.238 132.567 353.132L99.2568 371.111L99.3671 372.434C99.4226 373.157 99.4586 373.981 99.5141 374.273L99.6244 374.787L132.677 355.338C150.867 344.638 165.862 335.798 165.987 335.742C166.167 335.631 166.43 335.969 167.347 337.47C168.389 339.193 169.799 341.201 171.244 343.022C171.8 343.744 171.834 343.848 171.612 344.014C171.487 344.098 153.965 358.087 132.677 375.081L93.9993 406.001L96.72 408.685C98.2347 410.158 99.5868 411.41 99.698 411.479C99.8648 411.577 105.037 406.86 122.824 390.56C135.441 378.984 145.774 369.553 145.802 369.567C145.83 369.594 145.634 370.013 145.398 370.486C145.162 370.944 144.993 371.372 144.993 371.442C144.993 371.539 148.81 375.856 149.699 376.773C149.936 377.009 150.06 376.975 152.714 375.78L155.472 374.53L156.869 375.927L158.266 377.287L161.023 375.633L163.817 373.942L164.884 370.375C165.481 368.402 165.936 366.7 165.95 366.589C165.95 366.463 164.9 365.718 163.413 364.787L160.913 363.206L156.869 363.133L152.861 363.059L162.751 353.978C168.185 349.003 172.65 344.934 172.678 344.934C172.692 344.934 173.807 346.003 175.141 347.323C176.475 348.643 178.201 350.241 178.965 350.853C188.234 358.273 198.766 361.871 210.105 361.552C219.013 361.302 226.936 358.787 234.481 353.868C237.594 351.839 239.551 350.25 242.386 347.47L244.151 345.779L270.585 367.067C285.148 378.795 297.065 388.368 297.093 388.354C297.107 388.326 296.415 386.678 295.512 384.677L293.895 381.037L269.335 363.022L244.776 345.044L245.253 344.456C245.518 344.15 246.228 343.257 246.798 342.507C247.381 341.771 247.919 341.17 247.974 341.183C248.044 341.211 262.865 352.778 280.916 366.883C298.967 380.987 313.957 392.69 314.263 392.913L314.814 393.317L316.395 391.736C317.271 390.861 317.99 390.101 317.976 390.045C317.948 390.003 302.485 378.778 283.6 365.118C264.729 351.458 249.165 340.206 249.04 340.08C248.818 339.872 248.859 339.764 249.665 338.5C250.207 337.652 250.584 337.171 250.695 337.213C250.792 337.254 264.822 345.808 281.872 356.257C298.909 366.693 312.897 375.183 312.939 375.155C312.967 375.113 312.23 373.529 311.285 371.625L309.557 368.169L280.365 352.14L251.173 336.11L252.165 334.161C252.721 333.091 253.409 331.73 253.673 331.146L254.151 330.08L272.24 334.749C282.189 337.32 290.346 339.473 290.402 339.529C290.513 339.64 289.126 341.588 288.931 341.588C288.862 341.588 286.403 341.123 283.527 340.595C280.636 340.053 278.196 339.639 278.085 339.639C277.932 339.639 277.321 340.613 276.321 342.433L274.776 345.264L278.416 347.948C280.417 349.435 282.944 351.297 284.041 352.103L286.027 353.573L300.806 356.11C308.922 357.5 315.595 358.601 315.623 358.574C315.665 358.532 315.925 354.769 316.064 352.323L316.101 351.478L313.674 348.684L311.248 345.926L308.233 344.639C306.566 343.931 305.241 343.33 305.255 343.316C305.269 343.302 314.715 345.71 326.248 348.684C337.782 351.657 347.314 354.088 347.425 354.088C347.523 354.088 347.572 354.047 347.572 353.978C347.572 353.922 347.991 351.082 348.492 347.691C348.992 344.3 349.388 341.542 349.374 341.514C349.346 341.501 328.11 338.487 302.167 334.86C276.237 331.233 254.987 328.233 254.96 328.205C254.932 328.177 255.209 327.212 255.585 326.073C255.974 324.933 256.283 323.918 256.283 323.793C256.283 323.64 255.27 323.231 252.643 322.286L249.004 320.999L248.268 319.712C247.865 319.031 247.565 318.43 247.606 318.389C247.634 318.347 268.037 319.303 292.939 320.484L338.197 322.617L338.565 322.984L338.933 323.389L347.131 323.94L355.293 324.492L355.771 323.977L356.249 323.462L414.118 326.22C445.954 327.721 472.011 328.918 472.024 328.904C472.052 328.876 470.955 328.043 469.635 327.029L467.245 325.154L412.721 323.462C382.734 322.504 358.125 321.712 358.014 321.698C357.903 321.67 359.544 319.692 361.948 316.955C364.227 314.37 366.057 312.226 366.029 312.212C366.015 312.184 359.46 309.271 351.47 305.741C343.479 302.212 336.929 299.275 336.874 299.234C336.818 299.206 335.006 300.868 332.866 302.91L328.969 306.624L323.454 308.462C320.439 309.476 317.93 310.332 317.903 310.374C317.861 310.402 318.407 312.65 319.116 315.374C319.824 318.098 320.334 320.392 320.292 320.448C320.237 320.489 303.863 319.984 283.894 319.345C263.94 318.719 247.552 318.228 247.496 318.242C247.441 318.242 247.122 317.736 246.761 317.139C246.136 316.11 245.991 315.958 242.239 312.984L238.342 309.933L239.077 309.822C239.48 309.767 298.813 301.714 370.919 291.917L502.025 274.123L502.099 269.637V265.152L501.805 265.152ZM131.942 286.77C131.937 286.8 131.957 286.851 131.978 286.917C132.034 287.07 132.28 287.749 132.53 288.388L133.008 289.528L154.736 300.006C166.673 305.759 176.474 310.424 176.502 310.411C176.515 310.383 166.824 305.198 154.957 298.903C143.104 292.608 133.057 287.287 132.64 287.064C132.129 286.772 131.954 286.681 131.942 286.77ZM112.86 299.491C112.818 299.491 111.89 300.283 110.764 301.256C109.639 302.229 108.76 303.052 108.816 303.094C108.955 303.205 173.587 313.288 173.671 313.205C173.726 313.163 113.096 299.477 112.86 299.491ZM174.112 313.241C173.959 313.228 173.872 313.273 173.928 313.315C173.97 313.357 174.088 313.357 174.185 313.315C174.297 313.273 174.265 313.241 174.112 313.241ZM120.36 316.403L121.316 316.477C121.83 316.532 122.454 316.573 122.677 316.587C123.024 316.587 122.981 316.654 122.272 316.918C120.827 317.474 120.896 317.474 120.618 316.918L120.36 316.403ZM334.043 318.242C334.126 318.242 334.791 318.861 335.513 319.639L336.8 321.073L334.447 320.962C333.141 320.907 330.583 320.834 328.748 320.779C326.914 320.737 325.512 320.636 325.623 320.595C325.985 320.47 333.904 318.256 334.043 318.242ZM173.671 318.536C173.638 318.55 173.643 318.588 173.671 318.609C173.712 318.651 173.831 318.651 173.928 318.609C174.039 318.568 173.971 318.536 173.818 318.536C173.741 318.529 173.704 318.522 173.671 318.536ZM67.7486 322.727C67.6931 322.713 65.7448 324.138 63.4102 325.889L59.1822 329.014L59.1454 330.705C59.1038 332.359 59.0971 332.414 59.4028 332.47C59.9169 332.581 82.5912 334.644 82.7858 334.602C82.9247 334.561 68.0265 322.797 67.7486 322.727ZM95.9479 349.823C95.9479 349.948 104.449 358.132 104.588 358.132C104.671 358.132 106.087 357.572 107.713 356.919L110.654 355.743V353.169V350.595H110.287C109.8 350.595 97.8913 349.944 96.7935 349.86C96.3072 349.819 95.9479 349.795 95.9479 349.823ZM64.7338 371.442C64.6922 371.442 64.6145 371.542 64.5867 371.625C64.5451 371.723 63.8853 373.949 63.0794 376.589L61.6087 381.405L62.0499 382.03C64.4539 385.379 70.4227 393.51 70.506 393.538C70.5616 393.552 70.8392 392.887 71.131 392.067C71.4229 391.233 72.0328 389.522 72.4914 388.244L73.3002 385.927L73.8149 385.854C74.1068 385.812 75.2948 385.726 76.4621 385.67L78.5577 385.596L80.2122 383.795L81.8666 382.03L82.749 379.346C83.2215 377.887 83.5489 376.69 83.5211 376.662C83.4377 376.579 75.6958 373.684 75.5429 373.684C75.4595 373.684 74.8954 374.326 74.2561 375.118C73.6169 375.924 72.9931 376.543 72.8958 376.515C72.8124 376.488 70.9597 375.354 68.778 373.978C66.5964 372.589 64.7755 371.442 64.7338 371.442Z" fill="black"/>
</g>
<defs>
<clipPath id="clip0_155_318">
<rect width="500" height="500" fill="white"/>
</clipPath>
</defs>
</svg>
